{"title":"Unofficially Yours [2012] DVDRip H264 elite-pirates","uid":7175434,"size":466538785,"categoryP":"video","categoryS":"movies","magnet":"?xt=urn:btih:ff7486327708b489d2d6f58dc6285044727de7ef&amp;dn=Unofficially+Yours+%5B2012%5D+DVDRip+H264+elite-pirates&amp;tr=udp%3A%2F%2Ftracker.openbittorrent.com%3A80&amp;tr=udp%3A%2F%2Fopen.demonii.com%3A1337&amp;tr=udp%3A%2F%2Ftracker.coppersurfer.tk%3A6969&amp;tr=udp%3A%2F%2Fexodus.desync.com%3A6969","seeders":1,"leechers":0,"uploader":"BLOVES","files":4,"time":1334094637,"description":"IMDb : http://www.imdb.com/title/tt2211191/\nSource : bryantfury... Thanks!!!\nEncoder : dcloser\nAudio Language : Tagalog/Filipino\nSubtitles : No\n\n\nGeneral\nComplete name : Unofficially Yours [2012] DVDRip H264 elite-pirates.com.avi\nFormat : AVI\nFormat/Info : Audio Video Interleave\nFile size : 445 MiB\nDuration : 1h 46mn\nOverall bit rate : 582 Kbps\nWriting library : VirtualDub build 32842/release\n\nVideo\nID : 0\nFormat : AVC\nFormat/Info : Advanced Video Codec\nFormat profile : &lt;a class=&quot;__cf_email__&quot; href=&quot;/cdn-cgi/l/email-protection&quot; data-cfemail=&quot;bef6d7d9d6fef28d908e&quot;&gt;[email&amp;#160;protected]&lt;/a&gt;&lt;script cf-hash='f9e31' type=&quot;text/javascript&quot;&gt;\n/* &lt;![CDATA[ */!function(){try{var t=&quot;currentScript&quot;in document?document.currentScript:function(){for(var t=document.getElementsByTagName(&quot;script&quot;),e=t.length;e--;)if(t[e].getAttribute(&quot;cf-hash&quot;))return t[e]}();if(t&amp;&amp;t.previousSibling){var e,r,n,i,c=t.previousSibling,a=c.getAttribute(&quot;data-cfemail&quot;);if(a){for(e=&quot;&quot;,r=parseInt(a.substr(0,2),16),n=2;a.length-n;n+=2)i=parseInt(a.substr(n,2),16)^r,e+=String.fromCharCode(i);e=document.createTextNode(e),c.parentNode.replaceChild(e,c)}}}catch(u){}}();/* ]]&gt; */&lt;/script&gt;\nFormat settings, CABAC : Yes\nFormat settings, ReFrames : 3 frames\nCodec ID : H264\nDuration : 1h 46mn\nBit rate : 442 Kbps\nWidth : 624 pixels\nHeight : 336 pixels\nDisplay aspect ratio : 1.857\nFrame rate : 29.970 fps\nColor space : YUV\nChroma subsampling : 4:2:0\nBit depth : 8 bits\nScan type : Progressive\nBits/(Pixel*Frame) : 0.070\nStream size : 338 MiB (76%)\nWriting library : x264 core 120 r2120bm 0c7dab9\nEncoding settings : cabac=1 / ref=3 / deblock=1:0:0 / analyse=0x3:0x113 / me=hex\n\nAudio\nID : 1\nFormat : MPEG Audio\nFormat version : Version 1\nFormat profile : Layer 3\nMode : Joint stereo\nMode extension : MS Stereo\nCodec ID : 55\nCodec ID/Hint : MP3\nDuration : 1h 46mn\nBit rate mode : Constant\nBit rate : 128 Kbps\nChannel(s) : 2 channels\nSampling rate : 48.0 KHz\nCompression mode : Lossy\nStream size : 97.9 MiB (22%)\nAlignment : Aligned on interleaves\nInterleave, duration : 33 ms (1.00 video frame)\nInterleave, preload duration : 504 ms\nWriting library : LAME3.97\nEncoding settings : -m j -V 4 -q 2 -lowpass 17 -b 128\n\n","torrent":{"xt":"urn:btih:ff7486327708b489d2d6f58dc6285044727de7ef","amp;dn":"Unofficially+Yours+%5B2012%5D+DVDRip+H264+elite-pirates","amp;tr":["udp%3A%2F%2Ftracker.openbittorrent.com%3A80","udp%3A%2F%2Fopen.demonii.com%3A1337","udp%3A%2F%2Ftracker.coppersurfer.tk%3A6969","udp%3A%2F%2Fexodus.desync.com%3A6969"],"infoHash":"ff7486327708b489d2d6f58dc6285044727de7ef","infoHashBuffer":{"type":"Buffer","data":[255,116,134,50,119,8,180,137,210,214,245,141,198,40,80,68,114,125,231,239]},"announce":[],"urlList":[]}}